<svg width="2649" height="566" viewBox="0 0 2649 566" fill="none" xmlns="http://www.w3.org/2000/svg">
<path fill-rule="evenodd" clip-rule="evenodd" d="M631.381 490.291C577.956 511.406 517.109 523.356 452.545 523.356C397.377 523.356 344.923 514.631 297.494 498.919C264.305 540.851 216.138 566 163.596 566C66.3253 566 2.03451e-05 548.536 2.03451e-05 429.234C2.03451e-05 359.257 27.1299 297.05 69.1931 257.575C68.3947 249.976 67.988 242.294 67.988 234.541C67.988 75.0329 250.783 0 463.168 0C675.553 0 837.102 75.0329 837.102 234.541C837.102 235.639 837.094 236.736 837.078 237.832C899.633 271.212 943.333 347.283 943.333 435.783C943.333 555.085 867.074 564.061 769.114 564.061C711.303 564.061 662.046 536.997 631.381 490.291Z" fill="url(#paint0_linear_301_9)"/>
<path fill-rule="evenodd" clip-rule="evenodd" d="M342.541 91.3167C375.131 68.2779 415.724 54.6128 459.732 54.6128C502.92 54.6128 542.821 67.7741 575.095 90.0407C592.524 78.0662 614.045 70.9926 637.333 70.9926C695.439 70.9926 737.105 83.7333 737.105 138.055C737.105 185.224 701.59 224.637 654.196 234.2C654.205 234.941 654.21 235.684 654.21 236.427C654.21 336.84 567.139 418.241 459.732 418.241C352.324 418.241 265.253 336.84 265.253 236.427C265.253 235.136 265.267 233.849 265.296 232.565C213.52 226.102 173.596 184.923 173.596 135.089C173.596 80.7669 215.557 68.0262 274.075 68.0262C300.177 68.0262 324.075 76.7882 342.541 91.3167Z" fill="#FBE8E8"/>
<path d="M339.94 228.303C339.94 249.945 358.493 267.489 381.379 267.489C404.265 267.489 420.676 262.413 420.676 240.771C420.676 219.129 402.123 201.585 379.237 201.585C356.351 201.585 339.94 206.661 339.94 228.303Z" fill="url(#paint1_linear_301_9)"/>
<path d="M548.613 197.712C524.892 197.712 505.661 214.638 505.661 235.518C505.661 256.397 511.225 271.37 534.947 271.37C558.668 271.37 577.899 254.443 577.899 233.564C577.899 212.684 572.335 197.712 548.613 197.712Z" fill="url(#paint2_linear_301_9)"/>
<path d="M978.547 145.727H1040.85V451H978.547V145.727ZM1140.27 479.906C1146.26 483.812 1152.77 487.263 1159.8 490.258C1166.83 493.253 1174.12 495.727 1181.67 497.68C1189.35 499.633 1197.17 501.065 1205.11 501.977C1213.05 503.018 1220.93 503.539 1228.74 503.539C1255.3 503.539 1275.75 497.81 1290.07 486.352C1304.52 475.023 1311.75 457.966 1311.75 435.18V427.367C1306.67 430.883 1300.94 434.138 1294.56 437.133C1288.31 439.997 1281.54 442.471 1274.25 444.555C1267.09 446.638 1259.47 448.266 1251.4 449.438C1243.46 450.479 1235.38 451 1227.18 451C1209.6 451 1193.85 448.461 1179.91 443.383C1166.11 438.174 1154.39 430.622 1144.76 420.727C1135.25 410.701 1127.96 398.396 1122.88 383.812C1117.8 369.229 1115.27 352.562 1115.27 333.812V220.531H1172.88V317.797C1172.88 345.661 1178.16 366.234 1188.7 379.516C1199.38 392.667 1216.18 399.242 1239.09 399.242C1255.24 399.242 1269.5 396.443 1281.87 390.844C1294.37 385.115 1304.33 377.823 1311.75 368.969V220.531H1369.56V424.633C1369.56 446.638 1366.44 465.714 1360.19 481.859C1353.94 498.135 1344.82 511.612 1332.84 522.289C1320.99 532.966 1306.41 540.909 1289.09 546.117C1271.78 551.456 1252.11 554.125 1230.11 554.125C1208.62 554.125 1188.57 551.846 1169.95 547.289C1151.33 542.732 1134.28 536.547 1118.78 528.734L1140.27 479.906Z" fill="#3376DB"/>
<path d="M1426.59 336.742C1426.59 318.383 1430.04 301.846 1436.95 287.133C1443.85 272.289 1453.35 259.659 1465.46 249.242C1477.7 238.695 1492.15 230.622 1508.82 225.023C1525.62 219.294 1543.78 216.43 1563.31 216.43C1571.65 216.43 1579.85 216.951 1587.92 217.992C1596.12 219.034 1603.94 220.466 1611.36 222.289C1618.91 224.112 1625.94 226.326 1632.45 228.93C1639.09 231.404 1644.95 234.138 1650.03 237.133V126.977H1707.84V451H1650.03V429.32C1644.95 432.836 1638.96 436.156 1632.06 439.281C1625.16 442.406 1617.74 445.141 1609.8 447.484C1601.85 449.828 1593.59 451.651 1584.99 452.953C1576.53 454.385 1568.13 455.102 1559.8 455.102C1540.27 455.102 1522.3 452.237 1505.89 446.508C1489.61 440.779 1475.62 432.706 1463.9 422.289C1452.18 411.872 1443 399.438 1436.36 384.984C1429.85 370.401 1426.59 354.32 1426.59 336.742ZM1487.34 336.742C1487.34 345.987 1489.16 354.711 1492.8 362.914C1496.58 371.117 1501.92 378.344 1508.82 384.594C1515.85 390.714 1524.25 395.596 1534.02 399.242C1543.91 402.758 1554.98 404.516 1567.22 404.516C1575.03 404.516 1582.84 403.799 1590.66 402.367C1598.47 400.805 1605.96 398.656 1613.12 395.922C1620.41 393.188 1627.18 389.867 1633.43 385.961C1639.81 382.055 1645.34 377.693 1650.03 372.875V292.992C1644.17 288.305 1637.99 284.333 1631.48 281.078C1624.97 277.823 1618.33 275.154 1611.55 273.07C1604.78 270.987 1597.95 269.49 1591.05 268.578C1584.15 267.536 1577.44 267.016 1570.93 267.016C1557.65 267.016 1545.8 268.839 1535.38 272.484C1525.1 276 1516.37 280.883 1509.21 287.133C1502.18 293.383 1496.78 300.74 1493 309.203C1489.22 317.667 1487.34 326.846 1487.34 336.742ZM1780.3 126.977H1838.12V451H1780.3V126.977Z" fill="#33C7DB"/>
<defs>
<linearGradient id="paint0_linear_301_9" x1="471.667" y1="0" x2="471.667" y2="566" gradientUnits="userSpaceOnUse">
<stop stop-color="#A1C8E5"/>
<stop offset="1" stop-color="#315395"/>
</linearGradient>
<linearGradient id="paint1_linear_301_9" x1="380.308" y1="201.585" x2="380.308" y2="267.489" gradientUnits="userSpaceOnUse">
<stop stop-color="#A1C8E5"/>
<stop offset="1" stop-color="#315395"/>
</linearGradient>
<linearGradient id="paint2_linear_301_9" x1="577.899" y1="234.541" x2="505.661" y2="234.541" gradientUnits="userSpaceOnUse">
<stop stop-color="#A1C8E5"/>
<stop offset="1" stop-color="#315395"/>
</linearGradient>
</defs>
</svg>
